<?xml version="1.0" encoding="utf-8"?>
<!-- Generator: Adobe Illustrator 24.0.3, SVG Export Plug-In . SVG Version: 6.00 Build 0)  -->
<svg version="1.1" id="Layer_1" xmlns="http://www.w3.org/2000/svg" xmlns:xlink="http://www.w3.org/1999/xlink" x="0px" y="0px"
	 viewBox="0 0 226.44 81.11" style="enable-background:new 0 0 226.44 81.11;" xml:space="preserve">
<style type="text/css">
	.st0{fill:#DA291C;}
</style>
<g>
	<path class="st0" d="M58.98,16.92l-7.33,7.33c0,0-5.02-7.72-15.06-7.72c-10.04,0-17.76,7.72-17.76,17.76
		c0,10.04,7.72,17.76,17.76,17.76c10.42,0,15.83-7.72,15.83-7.72l6.95,7.33c0,0-7.72,10.81-22.78,10.81
		c-16.6,0-29.34-12.74-29.34-28.18c0-15.44,12.74-28.18,29.34-28.18C51.65,6.11,58.98,16.92,58.98,16.92"/>
	<rect x="66.63" y="7.26" class="st0" width="11.58" height="54.05"/>
	<rect x="174.84" y="68.06" class="st0" width="44.39" height="5.79"/>
	<polygon class="st0" points="125.41,7.26 125.41,17.69 97.23,17.69 97.23,31.97 119.04,31.97 119.04,42.4 97.23,42.4 97.23,61.31 
		85.65,61.31 85.65,7.26 	"/>
	<path class="st0" d="M144.11,20.78l-6.56,17.76h13.13L144.11,20.78z M133.69,48.57l-4.63,12.74H116.7l21.23-54.05h12.35
		l21.23,54.05h-12.35l-4.63-12.74H133.69z"/>
	<path class="st0" d="M198.39,17.69h-11.97v14.28h11.97c4.25,0,7.33-3.09,7.33-6.95C205.73,20.78,202.64,17.69,198.39,17.69
		 M174.84,7.26h23.93c10.81,0,18.53,7.87,18.53,17.76c0,11.58-9.65,15.83-9.65,15.83l11.58,20.46h-12.35l-10.42-18.92h-10.04v18.92
		h-11.58V7.26z"/>
</g>
</svg>
